<svg height="24pt" viewBox="-52 0 512 512" width="24pt" xmlns="http://www.w3.org/2000/svg"><g fill-rule="evenodd"><path d="m404.246094 88.414062-85.484375-85.484374c-1.875-1.875-4.421875-2.929688-7.070313-2.929688h-214.019531c-5.523437 0-10 4.476562-10 10v77.667969h-77.671875c-5.523438 0-10 4.476562-10 10v404.332031c0 5.523438 4.476562 10 10 10h299.503906c5.523438 0 10-4.476562 10-10v-77.667969h77.671875c5.519531 0 10-4.476562 10-10v-119.425781c0-5.523438-4.480469-10-10-10-5.523437 0-10 4.476562-10 10v109.425781h-67.671875v-221.179687c0-.113282-.011718-.222656-.015625-.335938-.003906-.113281-.011719-.226562-.019531-.339844-.027344-.425781-.074219-.847656-.15625-1.261718 0-.003906 0-.011719-.003906-.015625-.082032-.425781-.203125-.839844-.339844-1.246094-.035156-.101563-.074219-.207031-.113281-.308594-.144531-.382812-.304688-.765625-.496094-1.128906-.011719-.023437-.019531-.042969-.027344-.0625-.203125-.382813-.441406-.746094-.695312-1.101563-.0625-.089843-.125-.175781-.191407-.261718-.269531-.351563-.554687-.691406-.871093-1.011719l-85.480469-85.480469c-.316406-.320312-.660156-.601562-1.011719-.871094-.085937-.066406-.175781-.128906-.261719-.195312-.355468-.25-.71875-.488281-1.101562-.691406-.019531-.011719-.039062-.015625-.058594-.027344-.367187-.191406-.75-.351562-1.136718-.5-.101563-.039062-.203126-.074219-.300782-.109375-.410156-.136719-.828125-.257813-1.25-.34375-.003906 0-.003906 0-.003906 0-.417969-.082031-.847656-.128906-1.277344-.15625-.113281-.007813-.222656-.015625-.332031-.015625-.113281-.003906-.226563-.019531-.339844-.019531h-116.347656v-67.667969h199.875l79.628906 79.625v115.28125c0 5.523438 4.476563 10 10 10 5.519531 0 10-4.476562 10-10v-119.421875c0-2.652344-1.054687-5.195313-2.929687-7.070313zm-170.222656 33.398438 51.339843 51.339844h-51.339843zm-20-14.144531v75.484375c0 5.523437 4.476562 10 10 10h75.480468v298.847656h-279.503906v-384.332031zm0 0"/><path d="m46.5 183.152344c0 5.523437 4.476562 10 10 10h121.019531c5.523438 0 10-4.476563 10-10 0-5.523438-4.476562-10-10-10h-121.019531c-5.523438 0-10 4.476562-10 10zm0 0"/><path d="m46.5 237.15625c0 5.523438 4.476562 10 10 10h205.023438c5.523437 0 10-4.476562 10-10s-4.476563-10-10-10h-205.023438c-5.523438 0-10 4.476562-10 10zm0 0"/><path d="m261.523438 281.160156h-205.023438c-5.523438 0-10 4.476563-10 10 0 5.523438 4.476562 10 10 10h205.023438c5.523437 0 10-4.476562 10-10 0-5.523437-4.480469-10-10-10zm0 0"/><path d="m261.523438 335.160156h-205.023438c-5.523438 0-10 4.480469-10 10 0 5.523438 4.476562 10 10 10h205.023438c5.523437 0 10-4.476562 10-10 0-5.519531-4.480469-10-10-10zm0 0"/><path d="m221.523438 389.164062h-165.023438c-5.523438 0-10 4.480469-10 10 0 5.523438 4.476562 10 10 10h165.023438c5.523437 0 10-4.476562 10-10 0-5.519531-4.480469-10-10-10zm0 0"/><path d="m261.523438 389.164062c-5.507813 0-10 4.492188-10 10 0 5.511719 4.492187 10 10 10 5.507812 0 10-4.488281 10-10 0-5.507812-4.496094-10-10-10zm0 0"/><path d="m397.175781 244.90625c-5.511719 0-10 4.492188-10 10s4.488281 10 10 10c5.507813 0 10-4.492188 10-10s-4.492187-10-10-10zm0 0"/></g></svg>